<svg width="20" height="20" viewBox="0 0 20 20" fill="none" xmlns="http://www.w3.org/2000/svg">
<path d="M10.001 7C10.1313 7.00007 10.2617 7.03183 10.3799 7.0957C10.4507 7.13398 10.5176 7.18391 10.5771 7.24512C10.5833 7.25141 10.5888 7.2582 10.5947 7.26465L15.7441 12.5547C15.7495 12.5599 15.7554 12.5649 15.7607 12.5703C16.0787 12.897 16.0785 13.4271 15.7607 13.7539C15.4426 14.0807 14.9266 14.0807 14.6084 13.7539L14.6074 13.7529V13.7549L9.99805 9.01953L5.40039 13.7432C5.39705 13.7467 5.39404 13.7514 5.39062 13.7549C5.07256 14.0812 4.55734 14.0811 4.23926 13.7549C3.92108 13.4281 3.92108 12.8981 4.23926 12.5713V12.5703L9.42383 7.24512H9.4248C9.4843 7.18405 9.55037 7.13393 9.62109 7.0957C9.64495 7.08282 9.6696 7.07181 9.69434 7.06152C9.74322 7.04118 9.79355 7.02582 9.84473 7.01562C9.89629 7.00536 9.94864 6.99997 10.001 7Z" fill="#009F9C"/>
</svg>
