<svg width="24" height="24" viewBox="0 0 24 24" fill="none" xmlns="http://www.w3.org/2000/svg">
<path d="M3.89366 20.4191V18.4747C3.35894 18.4747 2.90119 18.2843 2.5204 17.9035C2.13961 17.5227 1.94922 17.065 1.94922 16.5302V5.8358C1.94922 5.30108 2.13961 4.84333 2.5204 4.46254C2.90119 4.08175 3.35894 3.89136 3.89366 3.89136H19.4492C19.9839 3.89136 20.4417 4.08175 20.8225 4.46254C21.2033 4.84333 21.3937 5.30108 21.3937 5.8358V16.5302C21.3937 17.065 21.2033 17.5227 20.8225 17.9035C20.4417 18.2843 19.9839 18.4747 19.4492 18.4747V20.4191H18.477L17.8451 18.4747H5.52214L4.86589 20.4191H3.89366ZM3.89366 16.5302H19.4492V5.8358H3.89366V16.5302Z" fill="#00AAA6"/>
</svg>
