<svg width="17" height="17" viewBox="0 0 17 17" fill="none" xmlns="http://www.w3.org/2000/svg">
<path d="M8.5 3.00781C11.5335 3.00781 13.9922 5.46652 13.9922 8.5C13.9921 11.5334 11.5334 13.9922 8.5 13.9922C5.4666 13.9922 3.00794 11.5334 3.00781 8.5C3.00781 8.25006 3.21002 8.04785 3.45996 8.04785C3.7099 8.04785 3.91211 8.25006 3.91211 8.5C3.91224 11.0335 5.96649 13.0879 8.5 13.0879C11.0335 13.0879 13.0878 11.0335 13.0879 8.5C13.0879 5.9664 11.0336 3.91211 8.5 3.91211C8.25014 3.91211 8.04798 3.70979 8.04785 3.45996C8.04785 3.21002 8.25006 3.00781 8.5 3.00781ZM5.81836 3.24609C6.20506 3.27386 6.38051 3.7434 6.10645 4.01758L5.46387 4.65918L9.30469 8.5C9.48085 8.67663 9.48085 8.96302 9.30469 9.13965C9.12809 9.31624 8.84083 9.31693 8.66406 9.14062L4.82324 5.2998L4.18164 5.94238C3.90747 6.21647 3.43792 6.041 3.41016 5.6543L3.26074 3.58105C3.241 3.30609 3.47016 3.07694 3.74512 3.09668L5.81836 3.24609Z" fill="#009F9C"/>
</svg>
